<mxfile host="65bd71144e">
    <diagram id="C5RBs43oDa-KdzZeNtuy" name="Page-1">
        <mxGraphModel dx="1515" dy="897" grid="1" gridSize="10" guides="1" tooltips="1" connect="1" arrows="1" fold="1" page="1" pageScale="1" pageWidth="827" pageHeight="1169" math="0" shadow="0">
            <root>
                <mxCell id="WIyWlLk6GJQsqaUBKTNV-0"/>
                <mxCell id="WIyWlLk6GJQsqaUBKTNV-1" parent="WIyWlLk6GJQsqaUBKTNV-0"/>
                <mxCell id="rPmgqzO9JIhBTBhEzBaf-5" style="edgeStyle=orthogonalEdgeStyle;rounded=0;orthogonalLoop=1;jettySize=auto;html=1;exitX=1;exitY=0.5;exitDx=0;exitDy=0;" parent="WIyWlLk6GJQsqaUBKTNV-1" source="rPmgqzO9JIhBTBhEzBaf-1" target="rPmgqzO9JIhBTBhEzBaf-3" edge="1">
                    <mxGeometry relative="1" as="geometry"/>
                </mxCell>
                <mxCell id="rPmgqzO9JIhBTBhEzBaf-1" value="&lt;font style=&quot;font-size: 18px;&quot;&gt;App&lt;/font&gt;" style="rounded=1;whiteSpace=wrap;html=1;" parent="WIyWlLk6GJQsqaUBKTNV-1" vertex="1">
                    <mxGeometry x="40" y="150" width="120" height="60" as="geometry"/>
                </mxCell>
                <mxCell id="rPmgqzO9JIhBTBhEzBaf-6" style="edgeStyle=orthogonalEdgeStyle;rounded=0;orthogonalLoop=1;jettySize=auto;html=1;exitX=0.5;exitY=1;exitDx=0;exitDy=0;" parent="WIyWlLk6GJQsqaUBKTNV-1" source="rPmgqzO9JIhBTBhEzBaf-73" target="rPmgqzO9JIhBTBhEzBaf-4" edge="1">
                    <mxGeometry relative="1" as="geometry"/>
                </mxCell>
                <mxCell id="rPmgqzO9JIhBTBhEzBaf-3" value="&lt;span style=&quot;font-size: 18px;&quot;&gt;Navigation&lt;/span&gt;" style="rounded=1;whiteSpace=wrap;html=1;" parent="WIyWlLk6GJQsqaUBKTNV-1" vertex="1">
                    <mxGeometry x="390" y="150" width="120" height="60" as="geometry"/>
                </mxCell>
                <mxCell id="rPmgqzO9JIhBTBhEzBaf-11" style="edgeStyle=orthogonalEdgeStyle;rounded=0;orthogonalLoop=1;jettySize=auto;html=1;entryX=0.5;entryY=0;entryDx=0;entryDy=0;exitX=0;exitY=0.5;exitDx=0;exitDy=0;" parent="WIyWlLk6GJQsqaUBKTNV-1" source="rPmgqzO9JIhBTBhEzBaf-4" target="rPmgqzO9JIhBTBhEzBaf-9" edge="1">
                    <mxGeometry relative="1" as="geometry">
                        <Array as="points">
                            <mxPoint x="390" y="380"/>
                            <mxPoint x="170" y="380"/>
                        </Array>
                    </mxGeometry>
                </mxCell>
                <mxCell id="rPmgqzO9JIhBTBhEzBaf-13" style="edgeStyle=orthogonalEdgeStyle;rounded=0;orthogonalLoop=1;jettySize=auto;html=1;exitX=0.083;exitY=1;exitDx=0;exitDy=0;exitPerimeter=0;" parent="WIyWlLk6GJQsqaUBKTNV-1" source="rPmgqzO9JIhBTBhEzBaf-4" target="rPmgqzO9JIhBTBhEzBaf-12" edge="1">
                    <mxGeometry relative="1" as="geometry"/>
                </mxCell>
                <mxCell id="rPmgqzO9JIhBTBhEzBaf-24" style="edgeStyle=orthogonalEdgeStyle;rounded=0;orthogonalLoop=1;jettySize=auto;html=1;exitX=0.5;exitY=1;exitDx=0;exitDy=0;" parent="WIyWlLk6GJQsqaUBKTNV-1" source="rPmgqzO9JIhBTBhEzBaf-80" target="rPmgqzO9JIhBTBhEzBaf-23" edge="1">
                    <mxGeometry relative="1" as="geometry">
                        <mxPoint x="468.75" y="460" as="sourcePoint"/>
                    </mxGeometry>
                </mxCell>
                <mxCell id="rPmgqzO9JIhBTBhEzBaf-63" style="edgeStyle=none;rounded=0;orthogonalLoop=1;jettySize=auto;html=1;entryX=0.337;entryY=0.047;entryDx=0;entryDy=0;entryPerimeter=0;exitX=0.75;exitY=1;exitDx=0;exitDy=0;" parent="WIyWlLk6GJQsqaUBKTNV-1" source="rPmgqzO9JIhBTBhEzBaf-4" target="rPmgqzO9JIhBTBhEzBaf-62" edge="1">
                    <mxGeometry relative="1" as="geometry">
                        <mxPoint x="730" y="360" as="targetPoint"/>
                        <Array as="points">
                            <mxPoint x="620" y="380"/>
                        </Array>
                    </mxGeometry>
                </mxCell>
                <mxCell id="rPmgqzO9JIhBTBhEzBaf-4" value="&lt;span style=&quot;font-size: 18px;&quot;&gt;Screens&lt;/span&gt;" style="rounded=1;whiteSpace=wrap;html=1;" parent="WIyWlLk6GJQsqaUBKTNV-1" vertex="1">
                    <mxGeometry x="390" y="320" width="120" height="60" as="geometry"/>
                </mxCell>
                <mxCell id="rPmgqzO9JIhBTBhEzBaf-68" style="edgeStyle=none;rounded=0;orthogonalLoop=1;jettySize=auto;html=1;entryX=1;entryY=0.5;entryDx=0;entryDy=0;exitX=0;exitY=1;exitDx=0;exitDy=0;" parent="WIyWlLk6GJQsqaUBKTNV-1" source="rPmgqzO9JIhBTBhEzBaf-9" target="rPmgqzO9JIhBTBhEzBaf-67" edge="1">
                    <mxGeometry relative="1" as="geometry"/>
                </mxCell>
                <mxCell id="rPmgqzO9JIhBTBhEzBaf-71" style="edgeStyle=none;rounded=0;orthogonalLoop=1;jettySize=auto;html=1;exitX=0.25;exitY=0;exitDx=0;exitDy=0;" parent="WIyWlLk6GJQsqaUBKTNV-1" source="rPmgqzO9JIhBTBhEzBaf-9" target="rPmgqzO9JIhBTBhEzBaf-70" edge="1">
                    <mxGeometry relative="1" as="geometry">
                        <Array as="points">
                            <mxPoint x="140" y="390"/>
                        </Array>
                    </mxGeometry>
                </mxCell>
                <mxCell id="rPmgqzO9JIhBTBhEzBaf-9" value="&lt;span style=&quot;font-size: 18px;&quot;&gt;Onbord login Screen&lt;/span&gt;" style="rounded=1;whiteSpace=wrap;html=1;" parent="WIyWlLk6GJQsqaUBKTNV-1" vertex="1">
                    <mxGeometry x="110" y="420" width="120" height="60" as="geometry"/>
                </mxCell>
                <mxCell id="rPmgqzO9JIhBTBhEzBaf-18" style="edgeStyle=orthogonalEdgeStyle;rounded=0;orthogonalLoop=1;jettySize=auto;html=1;exitX=1;exitY=0.5;exitDx=0;exitDy=0;" parent="WIyWlLk6GJQsqaUBKTNV-1" source="rPmgqzO9JIhBTBhEzBaf-97" target="rPmgqzO9JIhBTBhEzBaf-15" edge="1">
                    <mxGeometry relative="1" as="geometry">
                        <mxPoint x="230" y="630" as="sourcePoint"/>
                        <Array as="points">
                            <mxPoint x="260" y="713"/>
                            <mxPoint x="260" y="710"/>
                            <mxPoint x="290" y="710"/>
                        </Array>
                    </mxGeometry>
                </mxCell>
                <mxCell id="rPmgqzO9JIhBTBhEzBaf-19" style="edgeStyle=orthogonalEdgeStyle;rounded=0;orthogonalLoop=1;jettySize=auto;html=1;exitX=0;exitY=0.5;exitDx=0;exitDy=0;" parent="WIyWlLk6GJQsqaUBKTNV-1" source="rPmgqzO9JIhBTBhEzBaf-97" target="rPmgqzO9JIhBTBhEzBaf-14" edge="1">
                    <mxGeometry relative="1" as="geometry">
                        <mxPoint x="230.0476190476188" y="610" as="sourcePoint"/>
                        <Array as="points">
                            <mxPoint x="160" y="703"/>
                            <mxPoint x="160" y="715"/>
                            <mxPoint x="50" y="715"/>
                        </Array>
                    </mxGeometry>
                </mxCell>
                <mxCell id="rPmgqzO9JIhBTBhEzBaf-12" value="&lt;font style=&quot;font-size: 14px;&quot;&gt;Homescreen/Map Page&lt;/font&gt;" style="rounded=1;whiteSpace=wrap;html=1;" parent="WIyWlLk6GJQsqaUBKTNV-1" vertex="1">
                    <mxGeometry x="264" y="530" width="120" height="60" as="geometry"/>
                </mxCell>
                <mxCell id="rPmgqzO9JIhBTBhEzBaf-22" style="edgeStyle=orthogonalEdgeStyle;rounded=0;orthogonalLoop=1;jettySize=auto;html=1;" parent="WIyWlLk6GJQsqaUBKTNV-1" source="rPmgqzO9JIhBTBhEzBaf-14" target="rPmgqzO9JIhBTBhEzBaf-20" edge="1">
                    <mxGeometry relative="1" as="geometry"/>
                </mxCell>
                <mxCell id="rPmgqzO9JIhBTBhEzBaf-94" value="" style="edgeStyle=none;rounded=0;orthogonalLoop=1;jettySize=auto;html=1;" parent="WIyWlLk6GJQsqaUBKTNV-1" source="rPmgqzO9JIhBTBhEzBaf-14" target="rPmgqzO9JIhBTBhEzBaf-20" edge="1">
                    <mxGeometry relative="1" as="geometry"/>
                </mxCell>
                <mxCell id="rPmgqzO9JIhBTBhEzBaf-14" value="&lt;font style=&quot;font-size: 14px;&quot;&gt;Filter&lt;/font&gt;" style="rounded=1;whiteSpace=wrap;html=1;" parent="WIyWlLk6GJQsqaUBKTNV-1" vertex="1">
                    <mxGeometry x="-10" y="770" width="120" height="60" as="geometry"/>
                </mxCell>
                <mxCell id="rPmgqzO9JIhBTBhEzBaf-15" value="&lt;font style=&quot;font-size: 14px;&quot;&gt;SearchBar&lt;br&gt;&lt;/font&gt;" style="rounded=1;whiteSpace=wrap;html=1;" parent="WIyWlLk6GJQsqaUBKTNV-1" vertex="1">
                    <mxGeometry x="230" y="760" width="120" height="60" as="geometry"/>
                </mxCell>
                <mxCell id="rPmgqzO9JIhBTBhEzBaf-20" value="&lt;span style=&quot;font-size: 14px;&quot;&gt;Mapped Toggle Buttons&lt;/span&gt;" style="rounded=1;whiteSpace=wrap;html=1;" parent="WIyWlLk6GJQsqaUBKTNV-1" vertex="1">
                    <mxGeometry x="-10" y="910" width="120" height="60" as="geometry"/>
                </mxCell>
                <mxCell id="rPmgqzO9JIhBTBhEzBaf-28" style="edgeStyle=orthogonalEdgeStyle;rounded=0;orthogonalLoop=1;jettySize=auto;html=1;entryX=0.5;entryY=0;entryDx=0;entryDy=0;" parent="WIyWlLk6GJQsqaUBKTNV-1" source="rPmgqzO9JIhBTBhEzBaf-23" target="rPmgqzO9JIhBTBhEzBaf-27" edge="1">
                    <mxGeometry relative="1" as="geometry"/>
                </mxCell>
                <mxCell id="rPmgqzO9JIhBTBhEzBaf-23" value="&lt;font style=&quot;font-size: 14px;&quot;&gt;Scores screen&lt;/font&gt;" style="rounded=1;whiteSpace=wrap;html=1;" parent="WIyWlLk6GJQsqaUBKTNV-1" vertex="1">
                    <mxGeometry x="440" y="525" width="120" height="60" as="geometry"/>
                </mxCell>
                <mxCell id="rPmgqzO9JIhBTBhEzBaf-38" style="edgeStyle=none;rounded=0;orthogonalLoop=1;jettySize=auto;html=1;entryX=0.5;entryY=0;entryDx=0;entryDy=0;" parent="WIyWlLk6GJQsqaUBKTNV-1" source="rPmgqzO9JIhBTBhEzBaf-27" target="rPmgqzO9JIhBTBhEzBaf-40" edge="1">
                    <mxGeometry relative="1" as="geometry">
                        <mxPoint x="470" y="740" as="targetPoint"/>
                    </mxGeometry>
                </mxCell>
                <mxCell id="rPmgqzO9JIhBTBhEzBaf-39" style="edgeStyle=none;rounded=0;orthogonalLoop=1;jettySize=auto;html=1;entryX=0.5;entryY=0;entryDx=0;entryDy=0;" parent="WIyWlLk6GJQsqaUBKTNV-1" source="rPmgqzO9JIhBTBhEzBaf-81" target="rPmgqzO9JIhBTBhEzBaf-41" edge="1">
                    <mxGeometry relative="1" as="geometry">
                        <mxPoint x="530" y="740" as="targetPoint"/>
                    </mxGeometry>
                </mxCell>
                <mxCell id="rPmgqzO9JIhBTBhEzBaf-27" value="Top Tab" style="shape=hexagon;perimeter=hexagonPerimeter2;whiteSpace=wrap;html=1;fixedSize=1;" parent="WIyWlLk6GJQsqaUBKTNV-1" vertex="1">
                    <mxGeometry x="470" y="620" width="60" height="40" as="geometry"/>
                </mxCell>
                <mxCell id="rPmgqzO9JIhBTBhEzBaf-29" value="" style="shape=cylinder3;whiteSpace=wrap;html=1;boundedLbl=1;backgroundOutline=1;size=15;" parent="WIyWlLk6GJQsqaUBKTNV-1" vertex="1">
                    <mxGeometry x="-170" y="165" width="75" height="90" as="geometry"/>
                </mxCell>
                <mxCell id="rPmgqzO9JIhBTBhEzBaf-33" value="" style="shape=cylinder3;whiteSpace=wrap;html=1;boundedLbl=1;backgroundOutline=1;size=15;" parent="WIyWlLk6GJQsqaUBKTNV-1" vertex="1">
                    <mxGeometry x="-170" y="165" width="75" height="60" as="geometry"/>
                </mxCell>
                <mxCell id="rPmgqzO9JIhBTBhEzBaf-37" style="edgeStyle=none;rounded=0;orthogonalLoop=1;jettySize=auto;html=1;startArrow=none;startFill=0;" parent="WIyWlLk6GJQsqaUBKTNV-1" source="rPmgqzO9JIhBTBhEzBaf-104" target="rPmgqzO9JIhBTBhEzBaf-1" edge="1">
                    <mxGeometry relative="1" as="geometry"/>
                </mxCell>
                <mxCell id="rPmgqzO9JIhBTBhEzBaf-35" value="Supabse (PostgreSQL)" style="shape=cylinder3;whiteSpace=wrap;html=1;boundedLbl=1;backgroundOutline=1;size=15;" parent="WIyWlLk6GJQsqaUBKTNV-1" vertex="1">
                    <mxGeometry x="-170" y="135" width="75" height="90" as="geometry"/>
                </mxCell>
                <mxCell id="rPmgqzO9JIhBTBhEzBaf-44" style="edgeStyle=none;rounded=0;orthogonalLoop=1;jettySize=auto;html=1;" parent="WIyWlLk6GJQsqaUBKTNV-1" source="rPmgqzO9JIhBTBhEzBaf-40" target="rPmgqzO9JIhBTBhEzBaf-42" edge="1">
                    <mxGeometry relative="1" as="geometry"/>
                </mxCell>
                <mxCell id="rPmgqzO9JIhBTBhEzBaf-40" value="&lt;font style=&quot;font-size: 14px;&quot;&gt;Scores&lt;/font&gt;" style="rounded=1;whiteSpace=wrap;html=1;" parent="WIyWlLk6GJQsqaUBKTNV-1" vertex="1">
                    <mxGeometry x="370" y="780" width="120" height="60" as="geometry"/>
                </mxCell>
                <mxCell id="rPmgqzO9JIhBTBhEzBaf-51" style="edgeStyle=none;rounded=0;orthogonalLoop=1;jettySize=auto;html=1;" parent="WIyWlLk6GJQsqaUBKTNV-1" source="rPmgqzO9JIhBTBhEzBaf-41" target="rPmgqzO9JIhBTBhEzBaf-49" edge="1">
                    <mxGeometry relative="1" as="geometry"/>
                </mxCell>
                <mxCell id="rPmgqzO9JIhBTBhEzBaf-52" style="edgeStyle=none;rounded=0;orthogonalLoop=1;jettySize=auto;html=1;" parent="WIyWlLk6GJQsqaUBKTNV-1" source="rPmgqzO9JIhBTBhEzBaf-41" edge="1">
                    <mxGeometry relative="1" as="geometry">
                        <mxPoint x="610" y="910" as="targetPoint"/>
                    </mxGeometry>
                </mxCell>
                <mxCell id="rPmgqzO9JIhBTBhEzBaf-57" style="edgeStyle=none;rounded=0;orthogonalLoop=1;jettySize=auto;html=1;entryX=0.67;entryY=0.979;entryDx=0;entryDy=0;entryPerimeter=0;" parent="WIyWlLk6GJQsqaUBKTNV-1" source="rPmgqzO9JIhBTBhEzBaf-41" target="rPmgqzO9JIhBTBhEzBaf-29" edge="1">
                    <mxGeometry relative="1" as="geometry">
                        <mxPoint x="-200" y="1060" as="targetPoint"/>
                        <Array as="points">
                            <mxPoint x="780" y="810"/>
                            <mxPoint x="780" y="1080"/>
                            <mxPoint x="-120" y="1070"/>
                        </Array>
                    </mxGeometry>
                </mxCell>
                <mxCell id="rPmgqzO9JIhBTBhEzBaf-41" value="&lt;font style=&quot;font-size: 14px;&quot;&gt;Add Scores&lt;/font&gt;" style="rounded=1;whiteSpace=wrap;html=1;" parent="WIyWlLk6GJQsqaUBKTNV-1" vertex="1">
                    <mxGeometry x="500" y="780" width="120" height="60" as="geometry"/>
                </mxCell>
                <mxCell id="rPmgqzO9JIhBTBhEzBaf-42" value="&lt;font style=&quot;font-size: 14px;&quot;&gt;ScoreCards&lt;/font&gt;" style="rounded=1;whiteSpace=wrap;html=1;" parent="WIyWlLk6GJQsqaUBKTNV-1" vertex="1">
                    <mxGeometry x="320" y="910" width="120" height="60" as="geometry"/>
                </mxCell>
                <mxCell id="rPmgqzO9JIhBTBhEzBaf-49" value="&lt;font style=&quot;font-size: 14px;&quot;&gt;Input Scores&lt;/font&gt;" style="rounded=1;whiteSpace=wrap;html=1;" parent="WIyWlLk6GJQsqaUBKTNV-1" vertex="1">
                    <mxGeometry x="460" y="910" width="120" height="60" as="geometry"/>
                </mxCell>
                <mxCell id="rPmgqzO9JIhBTBhEzBaf-53" value="&lt;font style=&quot;font-size: 14px;&quot;&gt;Plus Button&lt;/font&gt;" style="rounded=1;whiteSpace=wrap;html=1;" parent="WIyWlLk6GJQsqaUBKTNV-1" vertex="1">
                    <mxGeometry x="590" y="910" width="120" height="60" as="geometry"/>
                </mxCell>
                <mxCell id="rPmgqzO9JIhBTBhEzBaf-62" value="&lt;font style=&quot;font-size: 14px;&quot;&gt;Users screen&lt;/font&gt;" style="rounded=1;whiteSpace=wrap;html=1;" parent="WIyWlLk6GJQsqaUBKTNV-1" vertex="1">
                    <mxGeometry x="580" y="525" width="120" height="60" as="geometry"/>
                </mxCell>
                <mxCell id="rPmgqzO9JIhBTBhEzBaf-66" value="Users State" style="ellipse;whiteSpace=wrap;html=1;" parent="WIyWlLk6GJQsqaUBKTNV-1" vertex="1">
                    <mxGeometry x="230" y="150" width="77.5" height="50" as="geometry"/>
                </mxCell>
                <mxCell id="rPmgqzO9JIhBTBhEzBaf-69" style="edgeStyle=none;rounded=0;orthogonalLoop=1;jettySize=auto;html=1;" parent="WIyWlLk6GJQsqaUBKTNV-1" source="rPmgqzO9JIhBTBhEzBaf-67" target="rPmgqzO9JIhBTBhEzBaf-12" edge="1">
                    <mxGeometry relative="1" as="geometry">
                        <Array as="points">
                            <mxPoint x="10" y="560"/>
                        </Array>
                    </mxGeometry>
                </mxCell>
                <mxCell id="rPmgqzO9JIhBTBhEzBaf-67" value="If yes" style="ellipse;whiteSpace=wrap;html=1;aspect=fixed;" parent="WIyWlLk6GJQsqaUBKTNV-1" vertex="1">
                    <mxGeometry x="-30" y="440" width="80" height="80" as="geometry"/>
                </mxCell>
                <mxCell id="rPmgqzO9JIhBTBhEzBaf-72" style="edgeStyle=none;rounded=0;orthogonalLoop=1;jettySize=auto;html=1;entryX=0.5;entryY=0;entryDx=0;entryDy=0;" parent="WIyWlLk6GJQsqaUBKTNV-1" source="rPmgqzO9JIhBTBhEzBaf-70" target="rPmgqzO9JIhBTBhEzBaf-9" edge="1">
                    <mxGeometry relative="1" as="geometry">
                        <mxPoint x="170" y="390" as="targetPoint"/>
                        <Array as="points">
                            <mxPoint x="10" y="320"/>
                            <mxPoint x="170" y="320"/>
                        </Array>
                    </mxGeometry>
                </mxCell>
                <mxCell id="rPmgqzO9JIhBTBhEzBaf-70" value="If no" style="ellipse;whiteSpace=wrap;html=1;aspect=fixed;" parent="WIyWlLk6GJQsqaUBKTNV-1" vertex="1">
                    <mxGeometry x="-30" y="350" width="80" height="80" as="geometry"/>
                </mxCell>
                <mxCell id="rPmgqzO9JIhBTBhEzBaf-74" value="Users State" style="ellipse;whiteSpace=wrap;html=1;" parent="WIyWlLk6GJQsqaUBKTNV-1" vertex="1">
                    <mxGeometry x="222.5" y="350" width="77.5" height="50" as="geometry"/>
                </mxCell>
                <mxCell id="rPmgqzO9JIhBTBhEzBaf-75" value="Users State" style="ellipse;whiteSpace=wrap;html=1;" parent="WIyWlLk6GJQsqaUBKTNV-1" vertex="1">
                    <mxGeometry x="341.25" y="420" width="77.5" height="50" as="geometry"/>
                </mxCell>
                <mxCell id="rPmgqzO9JIhBTBhEzBaf-83" value="" style="edgeStyle=none;rounded=0;orthogonalLoop=1;jettySize=auto;html=1;entryX=0.5;entryY=0;entryDx=0;entryDy=0;" parent="WIyWlLk6GJQsqaUBKTNV-1" source="rPmgqzO9JIhBTBhEzBaf-27" target="rPmgqzO9JIhBTBhEzBaf-81" edge="1">
                    <mxGeometry relative="1" as="geometry">
                        <mxPoint x="560" y="780" as="targetPoint"/>
                        <mxPoint x="509" y="660" as="sourcePoint"/>
                    </mxGeometry>
                </mxCell>
                <mxCell id="rPmgqzO9JIhBTBhEzBaf-81" value="ScoresState" style="ellipse;whiteSpace=wrap;html=1;" parent="WIyWlLk6GJQsqaUBKTNV-1" vertex="1">
                    <mxGeometry x="510" y="695" width="77.5" height="50" as="geometry"/>
                </mxCell>
                <mxCell id="rPmgqzO9JIhBTBhEzBaf-84" value="ScoresState" style="ellipse;whiteSpace=wrap;html=1;" parent="WIyWlLk6GJQsqaUBKTNV-1" vertex="1">
                    <mxGeometry x="414" y="695" width="77.5" height="50" as="geometry"/>
                </mxCell>
                <mxCell id="rPmgqzO9JIhBTBhEzBaf-85" value="ScoresState" style="ellipse;whiteSpace=wrap;html=1;" parent="WIyWlLk6GJQsqaUBKTNV-1" vertex="1">
                    <mxGeometry x="570" y="850" width="77.5" height="50" as="geometry"/>
                </mxCell>
                <mxCell id="rPmgqzO9JIhBTBhEzBaf-86" value="ScoresState" style="ellipse;whiteSpace=wrap;html=1;" parent="WIyWlLk6GJQsqaUBKTNV-1" vertex="1">
                    <mxGeometry x="482.5" y="850" width="77.5" height="50" as="geometry"/>
                </mxCell>
                <mxCell id="rPmgqzO9JIhBTBhEzBaf-92" value="" style="edgeStyle=orthogonalEdgeStyle;rounded=0;orthogonalLoop=1;jettySize=auto;html=1;exitX=0.5;exitY=1;exitDx=0;exitDy=0;" parent="WIyWlLk6GJQsqaUBKTNV-1" source="rPmgqzO9JIhBTBhEzBaf-4" target="rPmgqzO9JIhBTBhEzBaf-80" edge="1">
                    <mxGeometry relative="1" as="geometry">
                        <mxPoint x="450" y="380" as="sourcePoint"/>
                        <mxPoint x="500" y="525" as="targetPoint"/>
                    </mxGeometry>
                </mxCell>
                <mxCell id="rPmgqzO9JIhBTBhEzBaf-80" value="ScoresState" style="ellipse;whiteSpace=wrap;html=1;" parent="WIyWlLk6GJQsqaUBKTNV-1" vertex="1">
                    <mxGeometry x="452.5" y="430" width="77.5" height="50" as="geometry"/>
                </mxCell>
                <mxCell id="rPmgqzO9JIhBTBhEzBaf-93" value="" style="edgeStyle=orthogonalEdgeStyle;rounded=0;orthogonalLoop=1;jettySize=auto;html=1;exitX=0.5;exitY=1;exitDx=0;exitDy=0;" parent="WIyWlLk6GJQsqaUBKTNV-1" source="rPmgqzO9JIhBTBhEzBaf-3" target="rPmgqzO9JIhBTBhEzBaf-73" edge="1">
                    <mxGeometry relative="1" as="geometry">
                        <mxPoint x="450" y="210" as="sourcePoint"/>
                        <mxPoint x="450" y="320" as="targetPoint"/>
                    </mxGeometry>
                </mxCell>
                <mxCell id="rPmgqzO9JIhBTBhEzBaf-73" value="Users State" style="ellipse;whiteSpace=wrap;html=1;" parent="WIyWlLk6GJQsqaUBKTNV-1" vertex="1">
                    <mxGeometry x="412.5" y="240" width="77.5" height="50" as="geometry"/>
                </mxCell>
                <mxCell id="rPmgqzO9JIhBTBhEzBaf-96" value="" style="edgeStyle=orthogonalEdgeStyle;rounded=0;orthogonalLoop=1;jettySize=auto;html=1;exitX=0.335;exitY=1.041;exitDx=0;exitDy=0;exitPerimeter=0;" parent="WIyWlLk6GJQsqaUBKTNV-1" source="rPmgqzO9JIhBTBhEzBaf-12" target="rPmgqzO9JIhBTBhEzBaf-95" edge="1">
                    <mxGeometry relative="1" as="geometry">
                        <mxPoint x="304" y="592" as="sourcePoint"/>
                        <mxPoint x="290" y="760" as="targetPoint"/>
                        <Array as="points">
                            <mxPoint x="304" y="610"/>
                        </Array>
                    </mxGeometry>
                </mxCell>
                <mxCell id="rPmgqzO9JIhBTBhEzBaf-101" style="edgeStyle=none;rounded=0;orthogonalLoop=1;jettySize=auto;html=1;" parent="WIyWlLk6GJQsqaUBKTNV-1" source="rPmgqzO9JIhBTBhEzBaf-95" target="rPmgqzO9JIhBTBhEzBaf-97" edge="1">
                    <mxGeometry relative="1" as="geometry"/>
                </mxCell>
                <mxCell id="rPmgqzO9JIhBTBhEzBaf-95" value="Google Maps API" style="ellipse;whiteSpace=wrap;html=1;aspect=fixed;" parent="WIyWlLk6GJQsqaUBKTNV-1" vertex="1">
                    <mxGeometry x="190" y="600" width="80" height="80" as="geometry"/>
                </mxCell>
                <mxCell id="rPmgqzO9JIhBTBhEzBaf-97" value="&lt;font size=&quot;3&quot;&gt;Filter states&lt;/font&gt;" style="ellipse;whiteSpace=wrap;html=1;" parent="WIyWlLk6GJQsqaUBKTNV-1" vertex="1">
                    <mxGeometry x="170" y="695" width="67.5" height="45" as="geometry"/>
                </mxCell>
                <mxCell id="rPmgqzO9JIhBTBhEzBaf-105" value="" style="edgeStyle=none;rounded=0;orthogonalLoop=1;jettySize=auto;html=1;startArrow=none;startFill=0;" parent="WIyWlLk6GJQsqaUBKTNV-1" source="rPmgqzO9JIhBTBhEzBaf-35" target="rPmgqzO9JIhBTBhEzBaf-104" edge="1">
                    <mxGeometry relative="1" as="geometry">
                        <mxPoint x="-95" y="180" as="sourcePoint"/>
                        <mxPoint x="40" y="180" as="targetPoint"/>
                    </mxGeometry>
                </mxCell>
                <mxCell id="rPmgqzO9JIhBTBhEzBaf-104" value="Supabase" style="ellipse;whiteSpace=wrap;html=1;" parent="WIyWlLk6GJQsqaUBKTNV-1" vertex="1">
                    <mxGeometry x="-70" y="160" width="77.5" height="50" as="geometry"/>
                </mxCell>
            </root>
        </mxGraphModel>
    </diagram>
</mxfile>